<svg xmlns="http://www.w3.org/2000/svg" width="40" height="44" viewBox="0 0 40 44"><g fill="none" fill-rule="evenodd"><path d="M0 0h40v44H0z"/><path fill="#E6E6E6" fill-rule="nonzero" d="M19.972 39.272l15.376-8.663V13.283L19.972 4.62 4.596 13.283v17.326z"/><path fill="#BD2420" d="M37.187 31.645l-17.215 9.7-17.215-9.7V12.247l17.215-9.7 17.215 9.7z"/><path fill="#1F232D" fill-rule="nonzero" d="M21.485 14.781a32.049 32.049 0 0 1-3.197 0l-.001 1.355c.346.018.693.028 1.04.034v.695h.16v-.693c.133.002.266.006.4.006.132 0 .266-.004.399-.006v.693h.16v-.695c.346-.006.692-.016 1.04-.033V14.78z"/><path fill="#373F54" fill-rule="nonzero" d="M3.366 18.21l-.666-.807v-2.217s4.69 1.905 17.187 1.905 17.24-1.795 17.24-1.795l.107 1.69-.907 1.171s-10.045.728-16.44.728c-6.054 0-16.521-.676-16.521-.676z"/><path fill="#1F232D" fill-rule="nonzero" d="M37.473 15.621S28.28 17.65 19.886 17.65c-8.393 0-17.186-2.03-17.186-2.03v-.799c2.059.644 6.695 1.112 6.695 1.112l1.05-.465s2.048.998 9.442.998c7.395 0 9.576-.998 9.576-.998l.857.309s4.876-.37 6.994-.956l.16.8z"/><path fill="#1F232D" d="M2.721 17.336V30.48l17.215 9.7 17.215-9.7V17.336s-6.718 1.108-17.264 1.108c-10.547 0-17.166-1.108-17.166-1.108z"/><path fill="#1F232D" fill-rule="nonzero" d="M10.86 16.987l.472.575s6.05.304 8.554.304c2.503 0 8.371-.216 8.371-.216l.516-.597-9.276.283-8.637-.35z"/><path fill="#373F54" d="M19.152 17.427h1.491v1h-1.49z"/><path fill="#373F54" fill-rule="nonzero" d="M10.445 15.469l1.471 1.68s3.534.501 7.97.501c4.437 0 7.974-.49 7.974-.49l1.602-1.691s-4.859.998-9.576.998c-4.716 0-9.441-.998-9.441-.998z"/><g fill-rule="nonzero"><path fill="#1F232D" d="M30.04 14.382h4.135s2.035-.294 3.059-.51v-1.1s-3.906.951-6.177 1.39c-.396.076-.751.187-1.018.22z"/><path fill="#1F232D" d="M33.93 14.382v.44h-.735v-.44h-.244v1.259h1.223v-1.259z"/><path fill="#373F54" d="M30.04 14.112v.27s4.5-.736 7.193-1.609V12.4s-4.067 1.272-7.194 1.713z"/></g><path fill="#1F232D" fill-rule="nonzero" d="M14.615 17.462l-.542-.046-.3-.494.53.06zm10.335 0l.541-.046.3-.494-.53.06z"/><g fill-rule="nonzero"><path fill="#1F232D" d="M9.915 14.382H5.78s-2.035-.294-3.06-.51v-1.1s3.945.968 6.212 1.404c.388.074.721.173.983.206z"/><path fill="#373F54" d="M9.915 14.112v.27s-4.501-.736-7.194-1.609V12.4s4.068 1.272 7.194 1.713z"/><path fill="#1F232D" d="M6.025 14.382v.44h.734v-.44h.244v1.259H5.78v-1.259z"/></g><path fill="#E6E6E6" d="M2.757 28.768v2.918l17.215 9.659 17.215-9.7v-2.877s-6.608-.651-17.277-.651-17.153.651-17.153.651z"/><path d="M15.395 31.9l-.404-1.13-1.098.002v.726h.189v1.873h-.186v.73h1.152v-.73h-.185v-1.172l.515 1.434.536-1.434v1.172h-.185v.73h1.152v-.73h-.184v-1.873h.184v-.726l-1.077-.002zm3.359-1.13H17.54l-.429 2.6h-.134v.73h1.06v-.73H17.9v-.272h.492v.273h-.135v.728h1.06v-.728h-.135l-.428-2.6zm-.775 1.887l.165-1.03.17 1.03h-.335zm4.869.715h-.252V31.5h.253v.65h.767v-1.025l-.358-.354h-1.12l-.358.353v2.623l.357.352h1.123l.357-.352v-1.023h-.768zm-1.348-.64l-.286-.28.287-.28v-1.05l-.355-.351h-1.734v.727h.185v1.873h-.184v.728h1.148v-.728h-.134v-.594h.248V34.1h1.01v-.728H21.5v-.639zm-.825-.468h-.251v-.766h.251v.766zm5.243 1.106l-.427-2.6h-1.216l-.428 2.6h-.135v.73h1.06v-.73h-.136v-.272h.492v.273h-.136v.728h1.061v-.728h-.135zm-1.203-.713l.165-1.03.17 1.03h-.335z" fill="#E30000"/><path fill="#1F232D" fill-rule="nonzero" d="M19.972 41.892c-.35 0-.69-.083-.956-.233L2.956 32.61C2.402 32.298 2 31.618 2 30.994V12.898c0-.625.402-1.304.956-1.617l16.06-9.048c.266-.15.606-.233.956-.233s.69.083.956.233l16.06 9.048c.554.313.956.992.956 1.617v18.096c0 .624-.402 1.304-.956 1.616l-16.06 9.049a1.98 1.98 0 0 1-.956.233zm0-38.415a.476.476 0 0 0-.2.036L3.713 12.56a.55.55 0 0 0-.2.337v18.096c0 .095.116.29.2.337l16.06 9.048a.48.48 0 0 0 .199.036.479.479 0 0 0 .2-.036l16.059-9.048a.55.55 0 0 0 .199-.337V12.898a.548.548 0 0 0-.2-.337L20.173 3.512a.481.481 0 0 0-.2-.035z"/><path d="M4.8 20.464c0-.07.058-.134.138-.134l2.985-.001c.08 0 .137.062.137.13v.754c0 .07-.058.132-.137.132l-1.998.012v1.006l1.644-.018c.072 0 .137.06.137.13v.755c0 .069-.065.132-.137.133-.657.01-.986.016-1.644.028v1.698c0 .07-.065.134-.137.137l-.85.024a.13.13 0 0 1-.137-.13v-4.656zm3.367 4.52c.747-1.552 1.5-3.101 2.257-4.649a.147.147 0 0 1 .123-.075h.072c.05 0 .101.034.123.075.748 1.522 1.5 3.043 2.256 4.563.043.087-.015.176-.123.178l-.8.012c-.13.002-.188-.038-.253-.167l-.26-.534c-.653.01-1.307.02-1.96.032l-.26.554a.275.275 0 0 1-.26.17l-.793.018c-.108.003-.165-.086-.122-.177zm2.964-1.518c-.22-.448-.33-.672-.548-1.121h-.007l-.542 1.134 1.097-.013zm2.596-3.084c0-.068.064-.122.137-.122h.18c.957.862 1.916 1.723 2.876 2.582h.007v-2.387c0-.068.058-.128.138-.128h.865c.072 0 .137.06.137.127v4.521c0 .067-.065.121-.138.121l-.115.001a.224.224 0 0 1-.094-.033l-2.847-2.658h-.007v2.517a.134.134 0 0 1-.138.13l-.858.01c-.072 0-.137-.06-.137-.128l-.006-4.553zm6.372.932h-1.031c-.08 0-.137-.06-.137-.128v-.732c0-.067.057-.127.137-.127h3.2c.08 0 .137.06.137.127v.733a.132.132 0 0 1-.137.128l-1.03-.001v3.585c0 .067-.065.128-.137.127h-.865c-.073 0-.137-.061-.137-.129v-3.583zm1.975 3.541c.753-1.506 1.505-3.013 2.256-4.521a.147.147 0 0 1 .122-.074h.072c.05 0 .101.033.123.074.755 1.52 1.508 3.04 2.257 4.563.043.089-.014.176-.123.175l-.8-.01c-.13-.002-.188-.043-.252-.173l-.26-.536c-.653-.006-1.307-.011-1.96-.015-.105.214-.156.322-.26.536a.266.266 0 0 1-.26.16l-.793-.004c-.108 0-.165-.088-.122-.175zm2.962-1.424l-.547-1.115h-.008l-.54 1.109 1.095.006zm2.027.999l.338-.558c.058-.088.196-.067.245-.038.026.015.548.38 1.024.387.289.004.498-.164.498-.403 0-.287-.256-.515-.743-.697-.672-.252-1.39-.749-1.4-1.512-.009-.846.858-1.359 1.666-1.35.741.01 1.331.382 1.544.515.08.05.072.172.043.22l-.368.526c-.05.075-.182.128-.245.088-.057-.036-.591-.413-1.031-.414-.26-.001-.454.161-.454.345 0 .252.22.452.786.666.702.265 1.461.757 1.456 1.576-.005.864-.872 1.41-1.701 1.389-.93-.023-1.457-.39-1.622-.549-.072-.068-.094-.096-.036-.19zm5.313-1.586c-.53-.774-1.06-1.546-1.594-2.316-.058-.09 0-.2.115-.2h.938c.058 0 .094.035.115.063.401.567.602.852 1.003 1.425.4-.567.601-.851 1.002-1.423.021-.029.05-.063.115-.063h.937c.116 0 .173.112.116.204-.536.774-1.075 1.547-1.615 2.318v2.223c0 .07-.065.13-.137.13-.343-.01-.515-.015-.858-.023a.138.138 0 0 1-.137-.135v-2.203z" fill="#F6B040" fill-rule="nonzero"/><path d="M17.3 12.164h-1.45V9.702h.655v1.902h.793zm.107-.977c0-.55.417-1.035.977-1.035.245 0 .4.08.58.24v-.201h.603v1.973h-.613v-.193s-.22.24-.603.24c-.56 0-.944-.391-.944-1.024zm1.098-.483a.46.46 0 0 0-.479.473c0 .273.177.498.46.498a.48.48 0 0 0 .497-.482.47.47 0 0 0-.478-.489zm2.87 1.46h-1.448V9.702h.655v1.902h.793zm.213-2.474c0-.2.164-.364.367-.364.203 0 .37.157.37.357a.37.37 0 0 1-.376.366c-.2 0-.36-.157-.36-.36zm.668 2.474h-.609V10.19h.61v1.973zm.262-1.025c0-.534.348-.987.879-.987.255 0 .429.08.602.26v-.221h.584v1.738c0 .61-.469.929-1.032.929-.495 0-.928-.244-.993-.688h.685c.085.135.17.16.321.16.213 0 .41-.096.41-.31 0-.053.003-.098-.004-.149a.936.936 0 0 1-.577.228c-.52 0-.875-.424-.875-.96zm1.02-.476c-.286 0-.426.228-.426.472 0 .254.154.463.422.463a.454.454 0 0 0 .469-.46c0-.263-.151-.475-.465-.475zm1.307.524c0-.55.416-1.035.976-1.035.246 0 .4.08.58.24v-.201h.603v1.973h-.613v-.193s-.22.24-.603.24c-.56 0-.943-.391-.943-1.024zm1.097-.483a.459.459 0 0 0-.478.473c0 .273.177.498.458.498.272 0 .499-.196.499-.482a.47.47 0 0 0-.479-.489zm-13.609-.701a.019.019 0 0 0 0 .02.02.02 0 0 0 .008.005l.587.333a.02.02 0 0 0 .026-.005l.001-.003a.775.775 0 0 1 .546-.373.018.018 0 0 0 .007-.018V9.96l-.124-.65v-.002a.019.019 0 0 0-.004-.007.02.02 0 0 0-.017-.007h-.002a1.509 1.509 0 0 0-.595.244 1.459 1.459 0 0 0-.433.465m-.335 1.257a.02.02 0 0 0 .016.011.02.02 0 0 0 .009-.001l.633-.238h.001a.019.019 0 0 0 .012-.017v-.006l-.002-.003a.726.726 0 0 1 .041-.642.018.018 0 0 0-.008-.024l-.598-.314H12.1a.02.02 0 0 0-.008-.002.018.018 0 0 0-.017.008l-.001.002a1.429 1.429 0 0 0-.077 1.226m.805 1.033c.007.002.014 0 .019-.005a.018.018 0 0 0 .005-.008l.201-.632v-.001a.018.018 0 0 0-.01-.023h-.004a.77.77 0 0 1-.488-.429l-.001-.002a.02.02 0 0 0-.024-.01l-.002.002-.622.262-.001.001a.02.02 0 0 0-.007.005.019.019 0 0 0-.003.018v.002a1.49 1.49 0 0 0 .937.82m1.323.031a.019.019 0 0 0 .004-.026l-.378-.55a.02.02 0 0 0-.02-.008.026.026 0 0 0-.006.002l-.003.002a.776.776 0 0 1-.648.103h-.01a.018.018 0 0 0-.015.012v.002l-.18.638V12.508a.018.018 0 0 0 .012.014h.001a1.526 1.526 0 0 0 1.243-.197m.861-.987a.018.018 0 0 0-.01-.016.02.02 0 0 0-.008-.003l-.677-.051h-.001a.019.019 0 0 0-.018.01.016.016 0 0 0-.002.005v.003a.739.739 0 0 1-.32.56l-.001.002a.022.022 0 0 0-.005.006.018.018 0 0 0 .002.02l.401.534.001.001a.02.02 0 0 0 .006.005.02.02 0 0 0 .02 0v-.002c.171-.12.32-.28.43-.471a1.42 1.42 0 0 0 .182-.603m-.256-1.273a.02.02 0 0 0-.019-.003.02.02 0 0 0-.008.005l-.466.48-.001.001a.018.018 0 0 0-.004.02l.004.005.002.002a.75.75 0 0 1 .245.595v.002c0 .003 0 .005.002.007a.02.02 0 0 0 .016.012h.001l.678.032h.001c.003 0 .006 0 .008-.002a.019.019 0 0 0 .012-.015v-.001a1.447 1.447 0 0 0-.47-1.14m-1.187-.592a.02.02 0 0 0-.014.013.018.018 0 0 0 0 .009l.098.655v.001a.019.019 0 0 0 .021.015h.003a.784.784 0 0 1 .64.183c.007.002.014 0 .019-.005v-.001l.445-.5V9.84a.015.015 0 0 0 .004-.007.019.019 0 0 0-.005-.018h-.001a1.503 1.503 0 0 0-1.21-.343m.475 1.484v-.015c-.007.023-.02.046-.03.065a.33.33 0 0 0-.079-.16l-.155.031v-.001l.144-.065a.302.302 0 0 0-.032-.17c.02.008.046.02.065.036a.517.517 0 0 0-.29-.206c.023.013.042.035.058.05a.333.333 0 0 0-.178.024l-.018.153h-.002l-.018-.153a.33.33 0 0 0-.178-.023c.015-.016.035-.038.058-.05a.514.514 0 0 0-.29.205c.019-.017.045-.028.065-.037a.304.304 0 0 0-.033.17l.146.066v.001l-.156-.03a.313.313 0 0 0-.078.159c-.01-.019-.025-.042-.03-.066l-.001.016c0 .117.04.224.108.31-.008-.023-.01-.049-.014-.07a.34.34 0 0 0 .157.084l.109-.115h.001l-.078.137a.31.31 0 0 0 .13.12c-.02.004-.047.01-.07.01a.526.526 0 0 0 .347 0 .295.295 0 0 1-.07-.01.316.316 0 0 0 .13-.121l-.079-.135.001-.001.109.115a.324.324 0 0 0 .157-.083c-.003.02-.006.046-.014.068a.496.496 0 0 0 .108-.309zm-.376.189h-.28l-.087-.26.227-.161.227.16-.087.26z" fill="#FFF" fill-rule="nonzero"/></g></svg>